<svg xmlns="http://www.w3.org/2000/svg" xmlns:xlink="http://www.w3.org/1999/xlink" width="2500" zoomAndPan="magnify" viewBox="0 0 1874.88 1874.999927" height="2500" preserveAspectRatio="xMidYMid meet" version="1.0"><defs><g/><clipPath id="7079ca2b87"><path d="M 777 535.664062 L 1182.492188 535.664062 L 1182.492188 937.636719 L 777 937.636719 Z M 777 535.664062 " clip-rule="nonzero"/></clipPath><clipPath id="637e1d33e8"><path d="M 591.53125 628 L 685 628 L 685 722 L 591.53125 722 Z M 591.53125 628 " clip-rule="nonzero"/></clipPath></defs><g clip-path="url(#7079ca2b87)"><path fill="#131950" d="M 777.746094 535.664062 L 960.367188 535.664062 C 1004.308594 535.664062 1042.933594 543.816406 1076.011719 560.003906 C 1109.792969 576.898438 1135.542969 600.648438 1154.445312 630.425781 C 1172.871094 660.910156 1182.320312 696.003906 1182.320312 736.648438 C 1182.320312 776.585938 1172.871094 811.796875 1154.5625 842.164062 C 1135.664062 871.941406 1109.910156 895.574219 1076.128906 912.585938 C 1042.933594 928.773438 1004.425781 937.636719 960.484375 937.636719 L 777.746094 937.636719 L 777.746094 814.515625 L 871.066406 814.515625 L 871.066406 861.1875 L 955.640625 861.1875 C 996.277344 861.1875 1028.050781 849.726562 1051.675781 827.394531 C 1076.011719 805.0625 1088.175781 774.578125 1088.175781 736.769531 C 1088.175781 698.25 1076.011719 667.761719 1051.675781 645.433594 C 1028.050781 623.101562 996.15625 611.636719 955.640625 611.636719 L 871.066406 611.636719 L 871.066406 721.289062 L 777.746094 721.289062 Z M 777.746094 535.664062 " fill-opacity="1" fill-rule="nonzero"/></g><path fill="#131950" d="M 685.019531 721.054688 L 777.746094 721.054688 L 777.746094 813.808594 L 685.019531 813.808594 Z M 685.019531 721.054688 " fill-opacity="1" fill-rule="nonzero"/><g clip-path="url(#637e1d33e8)"><path fill="#131950" d="M 591.703125 628.417969 L 684.429688 628.417969 L 684.429688 721.171875 L 591.703125 721.171875 Z M 591.703125 628.417969 " fill-opacity="1" fill-rule="nonzero"/></g><path fill="#131950" d="M 685.019531 577.609375 L 735.578125 577.609375 L 735.578125 628.179688 L 685.019531 628.179688 Z M 685.019531 577.609375 " fill-opacity="1" fill-rule="nonzero"/><path fill="#131950" d="M 606.585938 542.398438 L 657.140625 542.398438 L 657.140625 592.96875 L 606.585938 592.96875 Z M 606.585938 542.398438 " fill-opacity="1" fill-rule="nonzero"/><g fill="#131950" fill-opacity="1"><g transform="translate(523.528596, 1193.577285)"><g><path d="M 13.453125 -134.59375 L 77.109375 -134.59375 C 91.847656 -134.59375 104.921875 -131.835938 116.328125 -126.328125 C 127.734375 -120.816406 136.578125 -113 142.859375 -102.875 C 149.140625 -92.75 152.28125 -80.890625 152.28125 -67.296875 C 152.28125 -53.710938 149.140625 -41.851562 142.859375 -31.71875 C 136.578125 -21.59375 127.734375 -13.773438 116.328125 -8.265625 C 104.921875 -2.753906 91.847656 0 77.109375 0 L 13.453125 0 Z M 75.5625 -30.375 C 87.101562 -30.375 96.363281 -33.644531 103.34375 -40.1875 C 110.332031 -46.726562 113.828125 -55.765625 113.828125 -67.296875 C 113.828125 -78.835938 110.332031 -87.875 103.34375 -94.40625 C 96.363281 -100.945312 87.101562 -104.21875 75.5625 -104.21875 L 51.53125 -104.21875 L 51.53125 -30.375 Z M 75.5625 -30.375 "/></g></g></g><g fill="#131950" fill-opacity="1"><g transform="translate(682.356092, 1193.577285)"><g><path d="M 13.453125 -134.59375 L 51.53125 -134.59375 L 51.53125 0 L 13.453125 0 Z M 13.453125 -134.59375 "/></g></g></g><g fill="#131950" fill-opacity="1"><g transform="translate(747.540735, 1193.577285)"><g><path d="M 103.640625 -70.1875 L 137.28125 -70.1875 L 137.28125 -14.421875 C 129.59375 -8.910156 120.75 -4.679688 110.75 -1.734375 C 100.75 1.210938 90.753906 2.6875 80.765625 2.6875 C 66.660156 2.6875 53.96875 -0.289062 42.6875 -6.25 C 31.40625 -12.207031 22.554688 -20.503906 16.140625 -31.140625 C 9.734375 -41.785156 6.53125 -53.835938 6.53125 -67.296875 C 6.53125 -80.753906 9.734375 -92.800781 16.140625 -103.4375 C 22.554688 -114.082031 31.46875 -122.382812 42.875 -128.34375 C 54.28125 -134.300781 67.164062 -137.28125 81.53125 -137.28125 C 94.09375 -137.28125 105.367188 -135.164062 115.359375 -130.9375 C 125.359375 -126.707031 133.691406 -120.617188 140.359375 -112.671875 L 116.140625 -90.75 C 107.035156 -100.75 96.140625 -105.75 83.453125 -105.75 C 71.910156 -105.75 62.613281 -102.253906 55.5625 -95.265625 C 48.519531 -88.285156 45 -78.960938 45 -67.296875 C 45 -59.859375 46.597656 -53.222656 49.796875 -47.390625 C 53.003906 -41.566406 57.488281 -37.019531 63.25 -33.75 C 69.019531 -30.476562 75.625 -28.84375 83.0625 -28.84375 C 90.375 -28.84375 97.234375 -30.316406 103.640625 -33.265625 Z M 103.640625 -70.1875 "/></g></g></g><g fill="#131950" fill-opacity="1"><g transform="translate(895.600213, 1193.577285)"><g><path d="M 13.453125 -134.59375 L 51.53125 -134.59375 L 51.53125 0 L 13.453125 0 Z M 13.453125 -134.59375 "/></g></g></g><g fill="#131950" fill-opacity="1"><g transform="translate(960.784855, 1193.577285)"><g><path d="M 42.109375 -104.40625 L 0.765625 -104.40625 L 0.765625 -134.59375 L 121.328125 -134.59375 L 121.328125 -104.40625 L 80.1875 -104.40625 L 80.1875 0 L 42.109375 0 Z M 42.109375 -104.40625 "/></g></g></g><g fill="#131950" fill-opacity="1"><g transform="translate(1082.885857, 1193.577285)"><g><path d="M 103.640625 -26.15625 L 46.71875 -26.15625 L 36.15625 0 L -2.6875 0 L 56.71875 -134.59375 L 94.21875 -134.59375 L 153.828125 0 L 114.21875 0 Z M 92.484375 -54.21875 L 75.1875 -97.296875 L 57.875 -54.21875 Z M 92.484375 -54.21875 "/></g></g></g><g fill="#131950" fill-opacity="1"><g transform="translate(1234.02191, 1193.577285)"><g><path d="M 13.453125 -134.59375 L 51.53125 -134.59375 L 51.53125 -30.1875 L 115.75 -30.1875 L 115.75 0 L 13.453125 0 Z M 13.453125 -134.59375 "/></g></g></g><g fill="#17285b" fill-opacity="1"><g transform="translate(713.685128, 1300.135087)"><g><path d="M 44.609375 -44.859375 L 24.734375 0 L 20.0625 0 L 0.1875 -44.859375 L 5.3125 -44.859375 L 22.5 -5.890625 L 39.796875 -44.859375 Z M 44.609375 -44.859375 "/></g></g></g><g fill="#17285b" fill-opacity="1"><g transform="translate(758.423483, 1300.135087)"><g><path d="M 26.921875 0.390625 C 22.472656 0.390625 18.441406 -0.601562 14.828125 -2.59375 C 11.222656 -4.582031 8.40625 -7.304688 6.375 -10.765625 C 4.34375 -14.222656 3.328125 -18.113281 3.328125 -22.4375 C 3.328125 -26.75 4.34375 -30.632812 6.375 -34.09375 C 8.40625 -37.5625 11.222656 -40.285156 14.828125 -42.265625 C 18.441406 -44.253906 22.472656 -45.25 26.921875 -45.25 C 31.359375 -45.25 35.359375 -44.265625 38.921875 -42.296875 C 42.492188 -40.335938 45.304688 -37.613281 47.359375 -34.125 C 49.410156 -30.644531 50.4375 -26.75 50.4375 -22.4375 C 50.4375 -18.113281 49.410156 -14.210938 47.359375 -10.734375 C 45.304688 -7.253906 42.492188 -4.53125 38.921875 -2.5625 C 35.359375 -0.59375 31.359375 0.390625 26.921875 0.390625 Z M 26.921875 -3.84375 C 30.460938 -3.84375 33.664062 -4.644531 36.53125 -6.25 C 39.394531 -7.851562 41.640625 -10.070312 43.265625 -12.90625 C 44.890625 -15.75 45.703125 -18.925781 45.703125 -22.4375 C 45.703125 -25.9375 44.890625 -29.109375 43.265625 -31.953125 C 41.640625 -34.796875 39.394531 -37.015625 36.53125 -38.609375 C 33.664062 -40.210938 30.460938 -41.015625 26.921875 -41.015625 C 23.367188 -41.015625 20.148438 -40.210938 17.265625 -38.609375 C 14.390625 -37.015625 12.128906 -34.796875 10.484375 -31.953125 C 8.835938 -29.109375 8.015625 -25.9375 8.015625 -22.4375 C 8.015625 -18.925781 8.835938 -15.75 10.484375 -12.90625 C 12.128906 -10.070312 14.390625 -7.851562 17.265625 -6.25 C 20.148438 -4.644531 23.367188 -3.84375 26.921875 -3.84375 Z M 26.921875 -3.84375 "/></g></g></g><g fill="#17285b" fill-opacity="1"><g transform="translate(812.199206, 1300.135087)"><g><path d="M 7.3125 -44.859375 L 12.046875 -44.859375 L 12.046875 -4.109375 L 37.171875 -4.109375 L 37.171875 0 L 7.3125 0 Z M 7.3125 -44.859375 "/></g></g></g><g fill="#17285b" fill-opacity="1"><g transform="translate(849.951204, 1300.135087)"><g><path d="M 25.375 0.390625 C 19.570312 0.390625 15.046875 -1.273438 11.796875 -4.609375 C 8.546875 -7.941406 6.921875 -12.789062 6.921875 -19.15625 L 6.921875 -44.859375 L 11.671875 -44.859375 L 11.671875 -19.359375 C 11.671875 -14.140625 12.84375 -10.25 15.1875 -7.6875 C 17.539062 -5.125 20.9375 -3.84375 25.375 -3.84375 C 29.863281 -3.84375 33.28125 -5.125 35.625 -7.6875 C 37.976562 -10.25 39.15625 -14.140625 39.15625 -19.359375 L 39.15625 -44.859375 L 43.78125 -44.859375 L 43.78125 -19.15625 C 43.78125 -12.789062 42.164062 -7.941406 38.9375 -4.609375 C 35.707031 -1.273438 31.1875 0.390625 25.375 0.390625 Z M 25.375 0.390625 "/></g></g></g><g fill="#17285b" fill-opacity="1"><g transform="translate(900.714471, 1300.135087)"><g><path d="M 44.796875 -44.859375 L 44.796875 0 L 40.890625 0 L 12.046875 -36.40625 L 12.046875 0 L 7.3125 0 L 7.3125 -44.859375 L 11.21875 -44.859375 L 40.125 -8.453125 L 40.125 -44.859375 Z M 44.796875 -44.859375 "/></g></g></g><g fill="#17285b" fill-opacity="1"><g transform="translate(952.823725, 1300.135087)"><g><path d="M 16.03125 -40.765625 L 0.25 -40.765625 L 0.25 -44.859375 L 36.53125 -44.859375 L 36.53125 -40.765625 L 20.765625 -40.765625 L 20.765625 0 L 16.03125 0 Z M 16.03125 -40.765625 "/></g></g></g><g fill="#17285b" fill-opacity="1"><g transform="translate(989.614278, 1300.135087)"><g><path d="M 39.03125 -4.109375 L 39.03125 0 L 7.3125 0 L 7.3125 -44.859375 L 38.078125 -44.859375 L 38.078125 -40.765625 L 12.046875 -40.765625 L 12.046875 -24.796875 L 35.25 -24.796875 L 35.25 -20.765625 L 12.046875 -20.765625 L 12.046875 -4.109375 Z M 39.03125 -4.109375 "/></g></g></g><g fill="#17285b" fill-opacity="1"><g transform="translate(1032.493864, 1300.135087)"><g><path d="M 39.03125 -4.109375 L 39.03125 0 L 7.3125 0 L 7.3125 -44.859375 L 38.078125 -44.859375 L 38.078125 -40.765625 L 12.046875 -40.765625 L 12.046875 -24.796875 L 35.25 -24.796875 L 35.25 -20.765625 L 12.046875 -20.765625 L 12.046875 -4.109375 Z M 39.03125 -4.109375 "/></g></g></g><g fill="#17285b" fill-opacity="1"><g transform="translate(1075.373449, 1300.135087)"><g><path d="M 37.9375 0 L 27.6875 -14.421875 C 26.53125 -14.296875 25.332031 -14.234375 24.09375 -14.234375 L 12.046875 -14.234375 L 12.046875 0 L 7.3125 0 L 7.3125 -44.859375 L 24.09375 -44.859375 C 29.820312 -44.859375 34.3125 -43.488281 37.5625 -40.75 C 40.8125 -38.019531 42.4375 -34.265625 42.4375 -29.484375 C 42.4375 -25.984375 41.546875 -23.023438 39.765625 -20.609375 C 37.992188 -18.191406 35.460938 -16.445312 32.171875 -15.375 L 43.140625 0 Z M 23.96875 -18.265625 C 28.414062 -18.265625 31.8125 -19.242188 34.15625 -21.203125 C 36.507812 -23.171875 37.6875 -25.929688 37.6875 -29.484375 C 37.6875 -33.117188 36.507812 -35.90625 34.15625 -37.84375 C 31.8125 -39.789062 28.414062 -40.765625 23.96875 -40.765625 L 12.046875 -40.765625 L 12.046875 -18.265625 Z M 23.96875 -18.265625 "/></g></g></g><g fill="#17285b" fill-opacity="1"><g transform="translate(1121.714153, 1300.135087)"><g><path d="M 19.671875 0.390625 C 16.335938 0.390625 13.144531 -0.140625 10.09375 -1.203125 C 7.039062 -2.273438 4.679688 -3.691406 3.015625 -5.453125 L 4.875 -9.09375 C 6.5 -7.476562 8.65625 -6.164062 11.34375 -5.15625 C 14.03125 -4.15625 16.804688 -3.65625 19.671875 -3.65625 C 23.691406 -3.65625 26.703125 -4.390625 28.703125 -5.859375 C 30.710938 -7.335938 31.71875 -9.25 31.71875 -11.59375 C 31.71875 -13.394531 31.171875 -14.828125 30.078125 -15.890625 C 28.992188 -16.960938 27.660156 -17.785156 26.078125 -18.359375 C 24.503906 -18.941406 22.304688 -19.570312 19.484375 -20.25 C 16.109375 -21.101562 13.414062 -21.925781 11.40625 -22.71875 C 9.394531 -23.507812 7.675781 -24.71875 6.25 -26.34375 C 4.820312 -27.96875 4.109375 -30.164062 4.109375 -32.9375 C 4.109375 -35.207031 4.703125 -37.269531 5.890625 -39.125 C 7.085938 -40.988281 8.925781 -42.472656 11.40625 -43.578125 C 13.882812 -44.691406 16.960938 -45.25 20.640625 -45.25 C 23.203125 -45.25 25.710938 -44.894531 28.171875 -44.1875 C 30.628906 -43.488281 32.753906 -42.519531 34.546875 -41.28125 L 32.9375 -37.5 C 31.0625 -38.738281 29.054688 -39.664062 26.921875 -40.28125 C 24.785156 -40.90625 22.691406 -41.21875 20.640625 -41.21875 C 16.703125 -41.21875 13.738281 -40.457031 11.75 -38.9375 C 9.769531 -37.414062 8.78125 -35.460938 8.78125 -33.078125 C 8.78125 -31.273438 9.320312 -29.828125 10.40625 -28.734375 C 11.5 -27.648438 12.867188 -26.816406 14.515625 -26.234375 C 16.160156 -25.660156 18.375 -25.035156 21.15625 -24.359375 C 24.445312 -23.546875 27.101562 -22.742188 29.125 -21.953125 C 31.15625 -21.160156 32.875 -19.960938 34.28125 -18.359375 C 35.695312 -16.753906 36.40625 -14.585938 36.40625 -11.859375 C 36.40625 -9.585938 35.796875 -7.523438 34.578125 -5.671875 C 33.359375 -3.816406 31.488281 -2.34375 28.96875 -1.25 C 26.445312 -0.15625 23.347656 0.390625 19.671875 0.390625 Z M 19.671875 0.390625 "/></g></g></g><g fill="#131950" fill-opacity="1"><g transform="translate(791.788167, 793.548997)"><g><path d="M 30.109375 1.078125 C 22.140625 1.078125 15.945312 -1.09375 11.53125 -5.4375 C 7.113281 -9.78125 4.90625 -15.9375 4.90625 -23.90625 L 4.90625 -53.625 L 20.078125 -53.625 L 20.078125 -24.359375 C 20.078125 -15.773438 23.472656 -11.484375 30.265625 -11.484375 C 37.003906 -11.484375 40.375 -15.773438 40.375 -24.359375 L 40.375 -53.625 L 55.3125 -53.625 L 55.3125 -23.90625 C 55.3125 -15.9375 53.101562 -9.78125 48.6875 -5.4375 C 44.269531 -1.09375 38.078125 1.078125 30.109375 1.078125 Z M 30.109375 1.078125 "/></g></g></g><g fill="#131950" fill-opacity="1"><g transform="translate(852.007361, 793.548997)"><g><path d="M 56.390625 -53.625 L 56.390625 0 L 43.890625 0 L 20.21875 -28.578125 L 20.21875 0 L 5.359375 0 L 5.359375 -53.625 L 17.84375 -53.625 L 41.515625 -25.046875 L 41.515625 -53.625 Z M 56.390625 -53.625 "/></g></g></g><g fill="#131950" fill-opacity="1"><g transform="translate(913.758858, 793.548997)"><g><path d="M 48.421875 -11.71875 L 48.421875 0 L 5.359375 0 L 5.359375 -53.625 L 47.421875 -53.625 L 47.421875 -41.90625 L 20.375 -41.90625 L 20.375 -32.859375 L 44.203125 -32.859375 L 44.203125 -21.53125 L 20.375 -21.53125 L 20.375 -11.71875 Z M 48.421875 -11.71875 "/></g></g></g><g fill="#131950" fill-opacity="1"><g transform="translate(965.243988, 793.548997)"><g><path d="M 32.09375 1.078125 C 26.476562 1.078125 21.4375 -0.109375 16.96875 -2.484375 C 12.5 -4.859375 8.988281 -8.164062 6.4375 -12.40625 C 3.882812 -16.644531 2.609375 -21.445312 2.609375 -26.8125 C 2.609375 -32.175781 3.882812 -36.976562 6.4375 -41.21875 C 8.988281 -45.457031 12.5 -48.765625 16.96875 -51.140625 C 21.4375 -53.515625 26.476562 -54.703125 32.09375 -54.703125 C 37 -54.703125 41.414062 -53.832031 45.34375 -52.09375 C 49.28125 -50.351562 52.550781 -47.851562 55.15625 -44.59375 L 45.5 -35.859375 C 42.03125 -40.046875 37.816406 -42.140625 32.859375 -42.140625 C 29.953125 -42.140625 27.363281 -41.5 25.09375 -40.21875 C 22.820312 -38.9375 21.054688 -37.132812 19.796875 -34.8125 C 18.546875 -32.488281 17.921875 -29.820312 17.921875 -26.8125 C 17.921875 -23.800781 18.546875 -21.132812 19.796875 -18.8125 C 21.054688 -16.488281 22.820312 -14.6875 25.09375 -13.40625 C 27.363281 -12.125 29.953125 -11.484375 32.859375 -11.484375 C 37.816406 -11.484375 42.03125 -13.578125 45.5 -17.765625 L 55.15625 -9.046875 C 52.550781 -5.773438 49.28125 -3.269531 45.34375 -1.53125 C 41.414062 0.207031 37 1.078125 32.09375 1.078125 Z M 32.09375 1.078125 "/></g></g></g></svg>