<svg xmlns="http://www.w3.org/2000/svg" xmlns:xlink="http://www.w3.org/1999/xlink" width="1080" zoomAndPan="magnify" viewBox="0 0 810 809.999993" height="1080" preserveAspectRatio="xMidYMid meet" version="1.0"><path fill="#ffffff" d="M 496.410156 487.414062 C 510.535156 504.449219 507.542969 530.242188 489.71875 545.019531 C 471.898438 559.796875 446 557.96875 431.875 540.929688 C 417.746094 523.898438 420.742188 498.105469 438.5625 483.328125 C 456.386719 468.550781 482.285156 470.378906 496.410156 487.414062 Z M 496.410156 487.414062 " fill-opacity="1" fill-rule="nonzero"/><path fill="#2a245e" d="M 492.390625 476.539062 C 493.34375 478.773438 493.015625 481.332031 491.597656 483.300781 C 487.503906 488.953125 483.261719 494.226562 478.847656 499.089844 C 464.796875 514.578125 449.097656 525.953125 431.507812 532.625 C 429.101562 533.542969 426.363281 533.035156 424.445312 531.308594 C 391.832031 501.878906 365.953125 471.902344 352.066406 440.925781 C 340.753906 412.574219 355.496094 383.121094 380.953125 373.519531 C 395.378906 368.058594 413.289062 369 431.839844 380.171875 C 432.472656 380.539062 433.039062 381.019531 433.519531 381.574219 C 458.109375 409.867188 477.558594 441.640625 492.390625 476.539062 Z M 492.390625 476.539062 " fill-opacity="1" fill-rule="nonzero"/><path fill="#2a245e" d="M 492.390625 476.539062 C 493.34375 478.773438 493.015625 481.332031 491.597656 483.300781 C 487.5 488.953125 483.261719 494.226562 478.847656 499.089844 C 451.027344 439.308594 419.875 391.96875 380.953125 373.519531 C 395.378906 368.058594 413.289062 369 431.839844 380.171875 C 432.472656 380.539062 433.035156 381.019531 433.519531 381.574219 C 458.109375 409.867188 477.558594 441.640625 492.390625 476.539062 Z M 492.390625 476.539062 " fill-opacity="1" fill-rule="nonzero"/><path fill="#2a245e" d="M 636.21875 473.355469 C 644.769531 488.730469 647.773438 504.832031 645.105469 521.695312 C 644.773438 523.84375 643.640625 525.808594 641.925781 527.148438 C 589.609375 568.085938 531.195312 577.78125 467.457031 560.164062 C 462.980469 558.933594 460.300781 554.324219 461.410156 549.816406 C 464.980469 535.238281 469.25 521.292969 474.8125 508.578125 C 479.054688 498.871094 484.058594 489.878906 490.074219 481.847656 C 490.628906 481.101562 491.316406 480.445312 492.074219 479.914062 C 531.863281 452.308594 573.671875 442.90625 617.445312 451.28125 C 619.246094 451.628906 620.894531 452.550781 622.128906 453.917969 C 627.847656 460.261719 632.546875 466.738281 636.21875 473.355469 Z M 636.21875 473.355469 " fill-opacity="1" fill-rule="nonzero"/><path fill="#2a245e" d="M 636.21875 473.355469 C 579.472656 477.667969 525.519531 489.023438 474.8125 508.578125 C 479.054688 498.871094 484.058594 489.878906 490.074219 481.847656 C 490.628906 481.101562 491.316406 480.445312 492.074219 479.914062 C 531.863281 452.308594 573.671875 442.90625 617.445312 451.28125 C 619.246094 451.628906 620.894531 452.550781 622.128906 453.914062 C 627.847656 460.261719 632.546875 466.738281 636.21875 473.355469 Z M 636.21875 473.355469 " fill-opacity="1" fill-rule="nonzero"/><path fill="#ffffff" d="M 132.59375 516.65625 C 132.59375 539.066406 115.535156 557.234375 94.492188 557.234375 C 73.449219 557.234375 56.390625 539.066406 56.390625 516.65625 C 56.390625 494.246094 73.449219 476.078125 94.492188 476.078125 C 115.535156 476.078125 132.59375 494.246094 132.59375 516.65625 Z M 132.59375 516.65625 " fill-opacity="1" fill-rule="nonzero"/><path fill="#2a245e" d="M 127.269531 524.921875 C 107.160156 523.464844 89.265625 518.671875 75.609375 507.503906 C 67.625 500.988281 61.082031 492.28125 56.390625 480.796875 C 71.09375 444.132812 93.855469 412.910156 118.121094 382.6875 C 132.027344 369.613281 151.402344 366.046875 167.875 370.988281 C 189.308594 377.398438 205.859375 398.171875 199.152344 431.070312 C 183.648438 462.582031 160.183594 493.882812 127.269531 524.921875 Z M 127.269531 524.921875 " fill-opacity="1" fill-rule="nonzero"/><path fill="#2a245e" d="M 75.609375 507.503906 C 67.625 500.988281 61.082031 492.28125 56.390625 480.796875 C 71.09375 444.132812 93.859375 412.910156 118.121094 382.6875 C 132.03125 369.613281 151.402344 366.046875 167.875 370.988281 C 135.578125 399.15625 104.78125 444.269531 75.609375 507.503906 Z M 75.609375 507.503906 " fill-opacity="1" fill-rule="nonzero"/><path fill="#2a245e" d="M 431.949219 382.242188 C 430.746094 547.578125 396.046875 647.144531 286.085938 650.265625 C 286.085938 650.265625 286.074219 650.269531 286.074219 650.269531 C 282.605469 650.375 279.0625 650.371094 275.433594 650.273438 C 266.136719 649.253906 257.453125 647.625 249.351562 645.457031 C 149.355469 618.746094 138.320312 508.066406 149.253906 376.640625 C 149.253906 376.640625 171.910156 377.085938 171.910156 377.085938 C 171.910156 377.085938 256.84375 378.777344 256.84375 378.777344 C 256.84375 378.777344 347.453125 380.570312 347.453125 380.570312 C 347.453125 380.570312 347.492188 380.566406 347.492188 380.566406 C 347.492188 380.566406 419.027344 381.984375 419.027344 381.984375 C 419.027344 381.984375 431.949219 382.242188 431.949219 382.242188 Z M 431.949219 382.242188 " fill-opacity="1" fill-rule="nonzero"/><path fill="#2a245e" d="M 419.027344 381.984375 C 412.257812 533.144531 378.640625 624.1875 287.175781 629.445312 C 287.175781 629.445312 287.167969 629.445312 287.167969 629.445312 C 284.140625 629.628906 281.046875 629.710938 277.886719 629.691406 C 269.789062 628.875 262.25 627.449219 255.234375 625.46875 C 172.378906 602.132812 162 500.570312 171.90625 377.085938 C 171.90625 377.085938 256.84375 378.777344 256.84375 378.777344 C 256.84375 378.777344 347.453125 380.566406 347.453125 380.566406 C 347.453125 380.566406 347.492188 380.566406 347.492188 380.566406 C 347.492188 380.566406 419.027344 381.984375 419.027344 381.984375 Z M 419.027344 381.984375 " fill-opacity="1" fill-rule="nonzero"/><path fill="#ffffff" d="M 376.386719 433.804688 C 376.386719 433.804688 402.710938 433.171875 402.710938 433.171875 C 406.035156 433.09375 408.664062 436.019531 408.152344 439.230469 C 408.152344 439.230469 399.277344 494.902344 399.277344 494.902344 C 398.921875 497.136719 397.117188 498.875 394.824219 499.136719 C 385.996094 500.136719 377.136719 499.457031 368.25 497.457031 C 365.535156 496.847656 363.699219 494.3125 364.066406 491.625 C 364.066406 491.625 371.398438 438.179688 371.398438 438.179688 C 371.738281 435.710938 373.839844 433.867188 376.386719 433.804688 Z M 376.386719 433.804688 " fill-opacity="1" fill-rule="nonzero"/><path fill="#5e17eb" d="M 376.230469 442.988281 C 376.230469 442.988281 375.652344 450.167969 375.652344 450.167969 C 375.558594 451.324219 376.507812 452.332031 377.695312 452.332031 C 377.695312 452.332031 398.300781 452.316406 398.300781 452.316406 C 399.273438 452.3125 400.09375 451.628906 400.242188 450.6875 C 400.242188 450.6875 401.523438 442.667969 401.523438 442.667969 C 401.71875 441.429688 400.695312 440.304688 399.414062 440.355469 C 399.414062 440.355469 378.109375 441.214844 378.109375 441.214844 C 377.109375 441.253906 376.308594 442.011719 376.230469 442.988281 Z M 376.230469 442.988281 " fill-opacity="1" fill-rule="nonzero"/><path fill="#5e17eb" d="M 374.511719 460.574219 C 374.511719 460.574219 373.398438 467.542969 373.398438 467.542969 C 373.222656 468.648438 374.023438 469.691406 375.160156 469.839844 C 375.160156 469.839844 394.9375 472.394531 394.9375 472.394531 C 395.964844 472.527344 396.910156 471.878906 397.125 470.894531 C 397.125 470.894531 399.359375 460.738281 399.359375 460.738281 C 399.636719 459.476562 398.613281 458.277344 397.292969 458.316406 C 397.292969 458.316406 376.394531 458.949219 376.394531 458.949219 C 375.441406 458.976562 374.65625 459.65625 374.511719 460.574219 Z M 374.511719 460.574219 " fill-opacity="1" fill-rule="nonzero"/><path fill="#5e17eb" d="M 371.453125 479.75 C 371.453125 479.75 370.164062 487.820312 370.164062 487.820312 C 369.988281 488.9375 370.8125 489.992188 371.96875 490.117188 C 371.96875 490.117188 392.550781 492.386719 392.550781 492.386719 C 393.605469 492.503906 394.558594 491.796875 394.71875 490.773438 C 394.71875 490.773438 396.117188 482.015625 396.117188 482.015625 C 396.300781 480.867188 395.433594 479.796875 394.246094 479.707031 C 394.246094 479.707031 373.554688 478.132812 373.554688 478.132812 C 372.519531 478.050781 371.609375 478.753906 371.453125 479.75 Z M 371.453125 479.75 " fill-opacity="1" fill-rule="nonzero"/><path fill="#ffffff" d="M 153.851562 385.574219 C 193.679688 412.546875 389.914062 415.761719 427.980469 390.257812 C 433.941406 386.265625 433.050781 377.308594 426.46875 374.113281 C 383.402344 353.203125 199.269531 344.820312 154.683594 368.03125 C 147.820312 371.601562 147.347656 381.167969 153.851562 385.574219 Z M 153.851562 385.574219 " fill-opacity="1" fill-rule="nonzero"/><path fill="#2a245e" d="M 239.300781 508.359375 C 238.5625 513.765625 235.472656 518.546875 230.972656 521.617188 C 192.667969 547.785156 149.441406 562.125 103.007812 568.738281 C 93.882812 570.042969 85.035156 564.765625 82.015625 556.058594 C 78.144531 544.902344 75.863281 533.03125 76.101562 520.003906 C 76.25 512.4375 77.242188 504.472656 79.285156 496.046875 C 80.300781 491.867188 82.710938 488.152344 86.082031 485.488281 C 124.332031 455.359375 165.96875 434.414062 212.515625 428.964844 C 221.714844 427.890625 230.375 433.511719 233.1875 442.34375 C 234.125 445.277344 234.964844 448.167969 235.710938 451.035156 C 241.074219 471.628906 241.738281 490.554688 239.300781 508.359375 Z M 239.300781 508.359375 " fill-opacity="1" fill-rule="nonzero"/><path fill="#2a245e" d="M 235.710938 451.035156 C 172.078125 462.953125 118.855469 485.917969 76.101562 520.003906 C 76.25 512.4375 77.246094 504.472656 79.289062 496.046875 C 80.300781 491.867188 82.710938 488.152344 86.085938 485.488281 C 124.332031 455.359375 165.96875 434.414062 212.515625 428.960938 C 221.714844 427.890625 230.375 433.511719 233.1875 442.34375 C 234.125 445.277344 234.964844 448.167969 235.710938 451.035156 Z M 235.710938 451.035156 " fill-opacity="1" fill-rule="nonzero"/><path fill="#2a245e" d="M 315.144531 700.195312 C 314.4375 700.949219 313.527344 701.507812 312.527344 701.796875 C 301.4375 705.019531 290.621094 706.792969 280.050781 707.125 C 256.164062 707.886719 233.601562 701.300781 212.304688 687.585938 C 211.277344 686.921875 210.480469 685.941406 210.035156 684.8125 C 207.628906 678.628906 207.535156 672.871094 209.621094 667.511719 C 210.789062 664.511719 214.246094 663.074219 217.265625 664.296875 C 240.621094 673.753906 264.59375 678.636719 289.257812 678.421875 C 298 678.355469 306.832031 677.636719 315.757812 676.265625 C 319.460938 675.703125 322.785156 678.726562 322.496094 682.414062 C 321.964844 689.429688 319.65625 695.433594 315.144531 700.195312 Z M 315.144531 700.195312 " fill-opacity="1" fill-rule="nonzero"/><path fill="#2a245e" d="M 315.144531 700.195312 C 314.4375 700.949219 313.527344 701.507812 312.527344 701.796875 C 301.4375 705.019531 290.621094 706.792969 280.050781 707.125 C 291.464844 700.8125 295.558594 691.648438 289.257812 678.421875 C 298 678.355469 306.832031 677.636719 315.757812 676.265625 C 319.460938 675.703125 322.785156 678.726562 322.496094 682.414062 C 321.964844 689.429688 319.65625 695.433594 315.144531 700.195312 Z M 315.144531 700.195312 " fill-opacity="1" fill-rule="nonzero"/><path fill="#2a245e" d="M 298.332031 742.378906 C 297.878906 743.53125 297.308594 744.664062 296.625 745.761719 C 294.695312 748.898438 291.398438 751 287.71875 751.539062 C 282.589844 752.296875 277.421875 752.78125 272.21875 753.019531 C 258.011719 753.660156 243.539062 752.378906 228.796875 749.261719 C 223.6875 748.183594 219.363281 744.78125 217.230469 740.070312 C 216.121094 737.644531 215.511719 735.398438 215.457031 733.359375 C 215.320312 728.636719 219.710938 725.042969 224.40625 725.949219 C 243.171875 729.550781 261.296875 731.914062 278.484375 732.445312 C 282.8125 732.582031 287.078125 732.601562 291.273438 732.496094 C 296.515625 732.351562 300.207031 737.546875 298.332031 742.378906 Z M 298.332031 742.378906 " fill-opacity="1" fill-rule="nonzero"/><path fill="#2a245e" d="M 298.332031 742.378906 C 297.878906 743.53125 297.308594 744.664062 296.625 745.761719 C 294.695312 748.898438 291.402344 751 287.71875 751.539062 C 282.589844 752.296875 277.421875 752.78125 272.21875 753.019531 C 277.300781 747.640625 279.757812 740.96875 278.488281 732.445312 C 282.816406 732.582031 287.078125 732.601562 291.273438 732.496094 C 296.515625 732.351562 300.207031 737.546875 298.332031 742.378906 Z M 298.332031 742.378906 " fill-opacity="1" fill-rule="nonzero"/><path fill="#ffffff" d="M 265.734375 85.65625 C 269.015625 109.125 266.292969 127.011719 260.6875 142.222656 C 260.6875 142.222656 288.945312 137.1875 288.945312 137.1875 C 276.613281 123.976562 272.566406 106.277344 274.9375 85.109375 C 274.9375 85.109375 265.734375 85.65625 265.734375 85.65625 Z M 265.734375 85.65625 " fill-opacity="1" fill-rule="nonzero"/><path fill="#2a245e" d="M 306.734375 151.339844 C 306.734375 151.339844 291.414062 153.539062 291.414062 153.539062 C 291.414062 153.539062 242.335938 160.59375 242.335938 160.59375 C 244.296875 149.328125 251.9375 140.296875 274.097656 136.953125 C 277.601562 136.53125 280.910156 136.203125 283.984375 136.039062 C 298 135.273438 307.105469 137.90625 306.734375 151.339844 Z M 306.734375 151.339844 " fill-opacity="1" fill-rule="nonzero"/><path fill="#2a245e" d="M 306.734375 151.339844 C 306.734375 151.339844 291.414062 153.539062 291.414062 153.539062 C 293.773438 147.898438 290.640625 142.03125 283.984375 136.039062 C 298.003906 135.273438 307.105469 137.90625 306.734375 151.339844 Z M 306.734375 151.339844 " fill-opacity="1" fill-rule="nonzero"/><path fill="#5e17eb" d="M 288.5 71.761719 C 289.117188 82.167969 281.183594 91.101562 270.777344 91.71875 C 260.371094 92.335938 251.433594 84.402344 250.816406 73.996094 C 250.199219 63.589844 258.136719 54.652344 268.542969 54.035156 C 278.949219 53.417969 287.882812 61.355469 288.5 71.761719 Z M 288.5 71.761719 " fill-opacity="1" fill-rule="nonzero"/><path fill="#5e17eb" d="M 288.5 71.761719 C 289.117188 82.167969 281.179688 91.105469 270.773438 91.722656 C 269.257812 91.808594 267.761719 91.722656 266.332031 91.460938 C 274.488281 88.984375 280.199219 81.171875 279.671875 72.285156 C 279.144531 63.398438 272.554688 56.3125 264.15625 54.820312 C 265.546875 54.390625 267.023438 54.125 268.539062 54.035156 C 278.945312 53.417969 287.882812 61.355469 288.5 71.761719 Z M 288.5 71.761719 " fill-opacity="1" fill-rule="nonzero"/><path fill="#2a245e" d="M 422.894531 282.328125 C 423.226562 285.257812 422.355469 288.207031 420.460938 290.464844 C 403.902344 310.160156 382.171875 326.488281 357.40625 338.546875 C 302.15625 365.476562 231.8125 371.179688 170.15625 345.714844 C 163.835938 343.105469 159.855469 336.792969 160.191406 329.964844 C 163.304688 266.53125 155.023438 199.039062 235.761719 163.3125 C 253.613281 155.410156 272.777344 151.183594 292.132812 150.855469 C 299.855469 150.71875 307.613281 151.195312 315.328125 152.316406 C 375.238281 161.023438 413.652344 200.667969 422.894531 282.328125 Z M 422.894531 282.328125 " fill-opacity="1" fill-rule="nonzero"/><path fill="#2a245e" d="M 420.316406 290.632812 C 403.773438 310.253906 382.097656 326.523438 357.40625 338.546875 C 376.746094 283.226562 353.738281 189.769531 292.132812 150.855469 C 299.855469 150.71875 307.613281 151.195312 315.328125 152.316406 C 375.183594 161.015625 413.582031 200.597656 422.871094 282.109375 C 423.21875 285.179688 422.308594 288.273438 420.316406 290.632812 Z M 420.316406 290.632812 " fill-opacity="1" fill-rule="nonzero"/><path fill="#ffffff" d="M 300.929688 189.257812 C 231.121094 197.464844 211.386719 238.320312 207.914062 289.78125 C 207.222656 333.398438 253.417969 341.847656 297.410156 320.054688 C 309.75 313.941406 323.582031 310.957031 337.425781 312.054688 C 379.15625 315.367188 411.023438 299.769531 399.117188 257.839844 C 389.464844 203.621094 351.304688 188.140625 300.929688 189.257812 Z M 300.929688 189.257812 " fill-opacity="1" fill-rule="nonzero"/><path fill="#ffffff" d="M 701.734375 428.496094 C 708.019531 422.898438 714.09375 414.628906 719.878906 403.496094 C 721.847656 399.699219 725.328125 396.765625 729.519531 395.925781 C 743.996094 393.023438 753.691406 415.667969 747.378906 437.230469 C 735.804688 474.882812 714.050781 492.292969 685.125 495.445312 C 660.117188 494.648438 642.425781 485.214844 642.429688 454.882812 C 642.988281 442.554688 649.21875 430.894531 660.269531 419.792969 C 675.117188 402.058594 691.621094 409.140625 692.289062 424.402344 C 692.5 429.226562 698.125 431.707031 701.734375 428.496094 Z M 701.734375 428.496094 " fill-opacity="1" fill-rule="nonzero"/><path fill="#5e17eb" d="M 291.46875 347.261719 C 291.46875 347.261719 259.289062 483.035156 259.289062 483.035156 C 257.828125 489.1875 262.113281 495.21875 268.402344 495.867188 C 268.402344 495.867188 326.621094 501.875 326.621094 501.875 C 331.765625 502.40625 336.53125 499.105469 337.832031 494.097656 C 337.832031 494.097656 371.921875 363.195312 371.921875 363.195312 C 373.457031 357.296875 369.652344 351.335938 363.652344 350.25 C 363.652344 350.25 303.523438 339.371094 303.523438 339.371094 C 298.046875 338.378906 292.753906 341.84375 291.46875 347.261719 Z M 291.46875 347.261719 " fill-opacity="1" fill-rule="nonzero"/><path fill="#ffffff" d="M 304.050781 384.117188 C 304.050781 384.117188 296.695312 382.324219 296.695312 382.324219 C 294.28125 381.734375 292.800781 379.300781 293.390625 376.886719 C 293.390625 376.886719 299.476562 351.945312 299.476562 351.945312 C 300.066406 349.53125 302.5 348.050781 304.914062 348.640625 C 304.914062 348.640625 312.269531 350.4375 312.269531 350.4375 C 314.683594 351.027344 316.164062 353.460938 315.574219 355.875 C 315.574219 355.875 309.488281 380.8125 309.488281 380.8125 C 308.898438 383.226562 306.464844 384.707031 304.050781 384.117188 Z M 304.050781 384.117188 " fill-opacity="1" fill-rule="nonzero"/><path fill="#ffffff" d="M 252.859375 409.417969 C 240.351562 425.054688 237.394531 443.550781 240.792969 463.957031 C 242.390625 473.558594 250.339844 480.902344 260.035156 481.808594 C 274.273438 483.144531 287.765625 482.898438 299.679688 479.3125 C 301.695312 478.707031 303.613281 477.796875 305.363281 476.625 C 320.792969 466.308594 328.324219 451.4375 324.460938 429.996094 C 323.890625 426.820312 323.984375 423.550781 324.808594 420.429688 C 326.851562 412.703125 325.070312 406.964844 320.640625 402.59375 C 316.96875 398.96875 311.972656 397.039062 306.820312 396.742188 C 292.476562 395.917969 278.164062 398.136719 263.867188 402.105469 C 259.523438 403.308594 255.679688 405.898438 252.859375 409.417969 Z M 252.859375 409.417969 " fill-opacity="1" fill-rule="nonzero"/><path fill="#2a245e" d="M 641.429688 113.269531 C 630.3125 102.152344 614.953125 95.285156 598.003906 95.285156 C 564.074219 95.285156 536.578125 122.78125 536.578125 156.710938 C 536.578125 156.710938 536.578125 169.054688 536.578125 169.054688 C 536.578125 202.980469 564.074219 230.480469 598.003906 230.480469 C 631.917969 230.480469 659.417969 202.980469 659.417969 169.054688 C 659.417969 169.054688 659.417969 156.710938 659.417969 156.710938 C 659.417969 139.746094 652.546875 124.386719 641.429688 113.269531 Z M 644.050781 167.511719 C 644.050781 192.941406 623.429688 213.558594 598.003906 213.558594 C 572.5625 213.558594 551.945312 192.941406 551.945312 167.511719 C 551.945312 167.511719 551.945312 158.25 551.945312 158.25 C 551.945312 132.820312 572.5625 112.203125 598.003906 112.203125 C 610.714844 112.203125 622.226562 117.351562 630.558594 125.691406 C 638.902344 134.023438 644.050781 145.535156 644.050781 158.25 C 644.050781 158.25 644.050781 167.511719 644.050781 167.511719 Z M 644.050781 167.511719 " fill-opacity="1" fill-rule="nonzero"/><path fill="#5e17eb" d="M 659.753906 278.292969 C 659.753906 278.292969 536.238281 278.292969 536.238281 278.292969 C 530.082031 278.292969 525.089844 273.300781 525.089844 267.144531 C 525.089844 267.144531 525.089844 182.09375 525.089844 182.09375 C 525.089844 175.9375 530.082031 170.945312 536.238281 170.945312 C 536.238281 170.945312 659.753906 170.945312 659.753906 170.945312 C 665.910156 170.945312 670.902344 175.9375 670.902344 182.09375 C 670.902344 182.09375 670.902344 267.144531 670.902344 267.144531 C 670.902344 273.300781 665.910156 278.292969 659.753906 278.292969 Z M 659.753906 278.292969 " fill-opacity="1" fill-rule="nonzero"/><path fill="#ffffff" d="M 614.796875 216.726562 C 614.796875 226.671875 606.730469 234.738281 596.785156 234.738281 C 586.835938 234.738281 578.773438 226.671875 578.773438 216.726562 C 578.773438 206.777344 586.835938 198.714844 596.785156 198.714844 C 606.730469 198.714844 614.796875 206.777344 614.796875 216.726562 Z M 614.796875 216.726562 " fill-opacity="1" fill-rule="nonzero"/><path fill="#ffffff" d="M 605.609375 257.84375 C 605.609375 257.84375 587.957031 257.84375 587.957031 257.84375 C 587.957031 257.84375 587.957031 216.726562 587.957031 216.726562 C 587.957031 216.726562 605.609375 216.726562 605.609375 216.726562 C 605.609375 216.726562 605.609375 257.84375 605.609375 257.84375 Z M 605.609375 257.84375 " fill-opacity="1" fill-rule="nonzero"/><path fill="#2a245e" d="M 732.875 347.917969 C 732.875 347.917969 463.117188 347.917969 463.117188 347.917969 C 452.105469 347.917969 443.175781 338.992188 443.175781 327.980469 C 443.175781 316.96875 452.105469 308.039062 463.117188 308.039062 C 463.117188 308.039062 732.875 308.039062 732.875 308.039062 C 743.886719 308.039062 752.816406 316.96875 752.816406 327.980469 C 752.816406 338.992188 743.886719 347.917969 732.875 347.917969 Z M 732.875 347.917969 " fill-opacity="1" fill-rule="nonzero"/><path fill="#5e17eb" d="M 272.046875 271.085938 C 272.488281 280.082031 268.765625 287.578125 263.734375 287.824219 C 258.703125 288.070312 254.265625 280.976562 253.828125 271.980469 C 253.386719 262.980469 257.109375 255.488281 262.140625 255.242188 C 267.171875 254.996094 271.605469 262.089844 272.046875 271.085938 Z M 272.046875 271.085938 " fill-opacity="1" fill-rule="nonzero"/><path fill="#5e17eb" d="M 348.664062 255.777344 C 350.734375 264.542969 356.386719 270.710938 361.289062 269.550781 C 366.191406 268.394531 368.484375 260.347656 366.414062 251.582031 C 364.34375 242.816406 358.691406 236.648438 353.785156 237.808594 C 348.886719 238.964844 346.589844 247.011719 348.664062 255.777344 Z M 348.664062 255.777344 " fill-opacity="1" fill-rule="nonzero"/><path stroke-linecap="round" transform="matrix(0.75, 0, 0, 0.75, 316.538248, 291.714029)" fill="none" stroke-linejoin="round" d="M -28.254124 -3.665581 C -8.196832 12.860462 10.662544 10.245878 28.256295 -12.85829 " stroke="#5e17eb" stroke-width="7" stroke-opacity="1" stroke-miterlimit="4"/></svg>